<?xml version="1.0" standalone="no"?>
<!DOCTYPE svg PUBLIC "-//W3C//DTD SVG 20010904//EN"
 "http://www.w3.org/TR/2001/REC-SVG-20010904/DTD/svg10.dtd">
<svg version="1.0" xmlns="http://www.w3.org/2000/svg"
 width="300.000000pt" height="299.000000pt" viewBox="0 0 300.000000 299.000000"
 preserveAspectRatio="xMidYMid meet">

<g transform="translate(0.000000,299.000000) scale(0.100000,-0.100000)"
fill="#000000" stroke="none">
<path d="M385 2678 c-3 -7 -4 -402 -3 -878 l3 -864 270 1 270 0 3 59 c2 32 -2
89 -8 126 l-12 68 -139 0 -139 0 0 620 c0 407 3 620 10 620 6 0 254 0 553 0
l542 0 3 -620 2 -620 -142 0 c-79 0 -147 -4 -153 -8 -14 -10 -15 -235 -1 -244
15 -10 528 -10 544 0 10 7 12 189 10 878 l-3 869 -803 3 c-637 2 -804 0 -807
-10z"/>
<path d="M1283 1963 l-263 -3 0 -865 c0 -476 0 -867 0 -870 0 -3 358 -5 795
-5 437 0 795 2 795 5 0 3 0 395 0 873 l0 867 -272 -5 -273 -5 -3 -111 c-2 -84
1 -114 11 -122 8 -7 70 -13 158 -14 l144 -3 3 -614 c1 -447 -1 -617 -9 -627
-10 -12 -105 -14 -558 -12 l-546 3 -3 628 -2 627 134 0 134 0 6 31 c8 40 20
230 15 227 -2 -2 -122 -4 -266 -5z"/>
</g>
</svg>
